<?xml version="1.0" encoding="utf-8"?>
<!-- Generator: Adobe Illustrator 25.2.0, SVG Export Plug-In . SVG Version: 6.00 Build 0)  -->
<svg version="1.1" id="Layer_1" xmlns="http://www.w3.org/2000/svg" xmlns:xlink="http://www.w3.org/1999/xlink" x="0px" y="0px"
	 viewBox="0 0 237.4 29.2" style="enable-background:new 0 0 237.4 29.2;" xml:space="preserve">
<style type="text/css">
	.st0{fill:#FFFBE9;}
	.st1{fill:#615c63;}
</style>
<polygon class="st0" points="8.3,21.5 18.1,21.5 13.5,29.2 12.7,29.2 "/>
<polygon class="st1" points="29.5,2.2 29.5,29.1 48,29.1 48,23.9 34.8,23.9 34.8,0.5 "/>
<polygon class="st1" points="50.3,2.2 50.3,29.1 68.7,29.1 68.7,23.9 55.6,23.9 55.6,0.5 "/>
<polygon class="st1" points="71.7,2.1 77.4,0.5 77.4,29.1 71.7,29.1 "/>
<path class="st1" d="M100.1,0v5.2H81.5V0H100.1z M81.5,12.1v5.2h18.6v-5.2H81.5z M81.5,23.9v5.2h18.6v-5.2L81.5,23.9z"/>
<polygon class="st1" points="114.2,29.2 119.6,29.2 119.6,12.6 120.3,12.6 126.9,23.8 130,23.8 136.6,12.6 137.3,12.6 137.3,29.2 
	142.7,29.2 142.7,0.2 137.9,0.2 128.9,16.1 128.2,16.1 119.2,0.2 114.2,0.2 "/>
<polyline class="st1" points="155.2,0.3 144.5,28.8 144.5,29.2 149.9,29.2 157.4,8.9 157.8,8.9 165.4,29.2 170.9,29.2 159.9,0.3 "/>
<polygon class="st0" points="152.7,21.5 162.5,21.5 157.9,29.2 157.1,29.2 "/>
<polyline class="st1" points="10.7,0.2 0,28.7 0,29.1 5.4,29.1 12.9,8.8 13.3,8.9 20.9,29.1 26.4,29.1 15.4,0.2 "/>
<path class="st1" d="M183.6,13.8c0.3,0,0.6,0,0.9-0.1c0.8-0.1,1.6-0.4,2.2-0.9c0.3-0.3,0.6-0.7,0.7-1.2c0.5-1.2,0.5-2.6,0-3.8
	c-0.2-0.6-0.5-1.1-1-1.5c-0.5-0.4-1-0.6-1.6-0.7h-6.6v23.7h-5.7v-29h12.1c1.3,0,2.6,0.3,3.8,0.9c0.9,0.5,1.7,1.1,2.3,1.8
	c1.2,1.5,2,3.4,2.3,5.4c0.1,0.9,0.1,1.7,0.1,2.6c0,0.2-0.1,0.5-0.1,0.7c0,0.2-0.1,0.5-0.2,0.7c-0.1,0.4-0.3,0.8-0.4,1.2
	c0,0-0.1,0.3-0.3,0.6c-0.5,0.9-1.2,1.7-2,2.4c-0.4,0.3-0.8,0.6-1.2,0.8c-0.5,0.3-1,0.6-1.3,0.7v0.8l7.2,10.1v0.3h-6.3l-6.9-9.8v-5.6
	L183.6,13.8z"/>
<polyline class="st1" points="194.2,0.3 215.9,0.3 215.9,5.4 202.4,5.4 194.2,5.4 "/>
<polyline class="st1" points="202.3,29.2 202.4,5.4 207.7,5.4 207.7,29.2 "/>
<polygon class="st1" points="217.1,5.4 217.1,5.1 220.8,0.1 237.1,0.1 237.1,4.2 224.1,23.2 224.1,23.9 237.4,23.9 233.6,29.1 
	216.5,29.1 216.5,25.1 224.6,12.7 228.7,7.1 229.4,5.9 229.5,5.4 "/>
</svg>
