<svg xmlns="http://www.w3.org/2000/svg" viewBox="0 0 250.6 242.37"><defs><style>.a{fill:#615c63;}.b{fill:#fffbe9;}.c{fill:#a3bcb6;}</style></defs><path class="a" d="M250.6,242.37H0V0H250.6ZM158,108.29c2.53,2.14,4.59,3.68,6.46,5.5q18.35,17.88,36.63,35.85a6.13,6.13,0,0,0,2.73,1.88,24.42,24.42,0,0,0,5-.17c-.2-2,.14-4.45-.69-5.9-4.27-7.41-8.88-14.53-13.29-21.82-2.71-4.49-5.2-9.17-7.93-13.65-2.18-3.58-4.68-3.78-7.23-.42l-2.48,3.27c-4.37-7.66-8.55-14.91-12.64-22.24,2.24,4-8.86-1-7.7-1.91-4.17,3.4-4.36,6.52-8.54,9.89-3.21,2.59-10.17,3.13-13.43-.26a113.17,113.17,0,0,0-12.18-10.79c-1.76-1.36-5.07-3-6-2-4,4-7,1.45-10.19-1.17-3.35-2.75-5.94-1.68-8.07,2.18-1.52,2.75-3.07,5.47-4.64,8.27a13.82,13.82,0,0,1-2.83-1.14c-4-2.83-7-2.36-9.92,2.77C75.67,105.61,69.6,114.17,64,123.12c-1.62,2.56-3.07,4.17-6.06,3.28a5.22,5.22,0,0,0-4.84,1.66c-5.29,6.84-10.29,14-16.22,22.24,3,1.13,5.17,2.66,7.29,2.59,6.83-.22,13.63-1.25,20.46-1.57,11.21-.53,9.93.77,12.06-12.48.65-4.05,1.93-6.47,5.67-5.67,4.15.89,6.67-1.5,7.88-6.22,2.69-10.59,8.33-19,13.77-27.48.56-.87,2.23-1.69,2.89-1.29,8.5,5.11,16.91,10.45,25.6,15.89-1.62,3-2.54,5-3.61,6.75-5.06,8.55-9.95,16.46-14.91,25.22-.75,1.32-.93,4.24-.24,5.32s3,1.35,4.28.85c6.5-2.46,13-5,19.3-8.14,2-1,4.76-3.53,4.92-5.62.43-5.43,2.93-6.94,6.49-7.22,4.11-.33,5.78-3.19,6.48-7.75C155.91,118.61,157,113.81,158,108.29Z"/><polygon class="b" points="21.61 192.33 30.76 192.33 26.47 199.26 25.73 199.26 21.61 192.33"/><polygon class="c" points="41.4 174.73 41.4 199.19 58.55 199.19 58.55 194.5 46.34 194.5 46.34 173.25 41.4 174.73"/><polygon class="c" points="60.7 174.73 60.7 199.19 77.84 199.19 77.84 194.5 65.63 194.5 65.63 173.25 60.7 174.73"/><polygon class="c" points="80.64 174.7 85.96 173.22 85.96 199.23 80.64 199.23 80.64 174.7"/><path class="c" d="M107.07,172.77v4.76H89.8v-4.76Zm-17.27,11v4.75h17.27v-4.75Zm0,10.7v4.76h17.27v-4.76Z"/><polygon class="c" points="120.26 199.29 125.23 199.29 125.23 184.18 125.88 184.18 132 194.41 134.9 194.4 141.08 184.18 141.76 184.18 141.76 199.29 146.73 199.29 146.73 173 142.25 173 133.9 187.44 133.28 187.44 124.84 173 120.26 173 120.26 199.29"/><polyline class="c" points="158.42 173.01 148.42 198.93 148.42 199.27 153.42 199.27 160.44 180.87 160.76 180.9 167.87 199.27 173 199.27 162.77 173.01"/><polygon class="b" points="156.06 192.33 165.22 192.33 160.93 199.26 160.18 199.26 156.06 192.33"/><polyline class="c" points="23.9 172.93 13.89 198.84 13.89 199.19 18.89 199.19 25.91 180.78 26.23 180.81 33.35 199.19 38.48 199.19 28.25 172.93"/><path class="c" d="M184.8,185.28a6.93,6.93,0,0,0,.87-.09,3.72,3.72,0,0,0,2.08-.82,2.6,2.6,0,0,0,.65-1.09,4.59,4.59,0,0,0,0-3.49,3.06,3.06,0,0,0-2.42-2l-6.11,0V199.3h-5.28V173h11.21a7.72,7.72,0,0,1,3.51.84,7.87,7.87,0,0,1,2.17,1.69,9.83,9.83,0,0,1,2.12,4.86,12.23,12.23,0,0,1,0,2.32,6.16,6.16,0,0,1-.09.63,4.78,4.78,0,0,1-.17.64,10.63,10.63,0,0,1-.39,1.1s-.13.29-.26.54a7.29,7.29,0,0,1-1.9,2.16c-.35.26-.63.43-1.17.76s-.91.52-1.22.67l0,.72,6.71,9.13v.25h-5.84l-6.41-8.91,0-5.11Z"/><polyline class="c" points="194.72 173.01 214.86 173.01 214.86 177.69 202.34 177.69 194.72 177.69"/><polyline class="c" points="202.21 199.28 202.34 177.69 207.28 177.69 207.28 199.28"/><polygon class="c" points="216.07 177.65 216.07 177.43 219.41 172.9 234.65 172.9 234.65 176.57 222.56 193.8 222.56 194.5 234.91 194.5 231.43 199.22 215.42 199.22 215.42 195.61 223.05 184.3 226.85 179.2 227.5 178.09 227.53 177.68 216.07 177.65"/></svg>